<svg width="496" height="449" viewBox="0 0 496 449" fill="none" xmlns="http://www.w3.org/2000/svg">
<path d="M212.155 110.837C193.263 156.934 178.894 201.988 169.05 245.998L125.107 252.177L134.362 180.73L114.323 246.595L72.5224 253.03C80.1574 204.269 84.4891 159.452 85.5176 118.579L122.811 112.602L112.773 197.899L140.843 103.735L160.84 101.371L143.954 221.448L174.114 115.62L212.155 110.837ZM262.931 104.851C276.728 105.243 286.272 113.199 291.563 128.719C294.332 136.744 295.581 145.507 295.312 155.008C295.053 164.119 293.406 173.972 290.37 184.567C285.038 202.653 276.232 219.207 263.952 234.229C248.974 252.562 233.415 261.5 217.275 261.042C203.349 260.647 193.675 252.688 188.253 237.163C185.604 229.533 184.412 221.032 184.677 211.661C184.939 202.42 186.655 192.438 189.825 181.717C195.161 163.501 203.904 146.88 216.053 131.854C231.036 113.391 246.662 104.39 262.931 104.851ZM254.53 153.07C247.371 152.867 239.917 158.518 232.166 170.021C225.916 179.093 221.495 188.02 218.901 196.805C217.597 201.457 216.891 205.67 216.784 209.445C216.633 214.781 217.811 219.179 220.318 222.636C223.205 226.496 227.316 228.501 232.653 228.652C239.941 228.859 246.623 225.206 252.698 217.693C257.557 211.708 261.146 204.58 263.464 196.309C266.214 186.618 267.008 177.001 265.845 167.459C264.549 158.044 260.777 153.247 254.53 153.07ZM423.984 116.842C405.092 162.94 390.723 207.994 380.878 252.003L336.936 258.182L346.191 186.736L326.152 252.601L284.351 259.036C291.986 210.274 296.318 165.457 297.347 124.585L334.64 118.608L324.602 203.905L352.672 109.74L372.669 107.376L355.783 227.454L385.943 121.626L423.984 116.842Z" fill="#D60000"/>
<path d="M212.155 110.837L235.288 120.317L251.528 80.6892L209.036 86.032L212.155 110.837ZM169.05 245.998L172.531 270.754L189.668 268.344L193.447 251.455L169.05 245.998ZM125.107 252.177L100.314 248.965L96.0992 281.501L128.588 276.933L125.107 252.177ZM134.362 180.73L159.155 183.942L110.444 173.454L134.362 180.73ZM114.323 246.595L118.127 271.304L133.665 268.912L138.241 253.872L114.323 246.595ZM72.5224 253.03L47.8233 249.163L42.5344 282.942L76.3263 277.739L72.5224 253.03ZM85.5176 118.579L81.5616 93.894L61.0482 97.1816L60.5255 117.95L85.5176 118.579ZM122.811 112.602L147.64 115.524L151.505 82.6848L118.855 87.9173L122.811 112.602ZM112.773 197.899L87.9442 194.977L136.731 205.041L112.773 197.899ZM140.843 103.735L137.908 78.9076L121.582 80.8377L116.885 96.5928L140.843 103.735ZM160.84 101.371L185.597 104.852L190.113 72.7363L157.905 76.5437L160.84 101.371ZM143.954 221.448L119.198 217.967L167.997 228.3L143.954 221.448ZM174.114 115.62L170.995 90.8152L154.6 92.8767L150.071 108.768L174.114 115.62ZM189.022 101.356C169.651 148.623 154.835 195.022 144.653 240.54L193.447 251.455C202.954 208.954 216.875 165.245 235.288 120.317L189.022 101.356ZM165.568 221.241L121.626 227.42L128.588 276.933L172.531 270.754L165.568 221.241ZM149.9 255.388L159.155 183.942L109.569 177.519L100.314 248.965L149.9 255.388ZM110.444 173.454L90.4056 239.319L138.241 253.872L158.279 188.007L110.444 173.454ZM110.519 221.886L68.7185 228.321L76.3263 277.739L118.127 271.304L110.519 221.886ZM97.2215 256.898C104.991 207.276 109.449 161.36 110.51 119.208L60.5255 117.95C59.5292 157.543 55.3235 201.262 47.8233 249.163L97.2215 256.898ZM89.4737 143.264L126.767 137.287L118.855 87.9173L81.5616 93.894L89.4737 143.264ZM97.9827 109.68L87.9442 194.977L137.602 200.821L147.64 115.524L97.9827 109.68ZM136.731 205.041L164.801 110.877L116.885 96.5928L88.8147 190.757L136.731 205.041ZM143.778 128.562L163.775 126.198L157.905 76.5437L137.908 78.9076L143.778 128.562ZM136.084 97.8894L119.198 217.967L168.71 224.93L185.597 104.852L136.084 97.8894ZM167.997 228.3L198.156 122.472L150.071 108.768L119.911 214.596L167.997 228.3ZM177.233 140.425L215.274 135.641L209.036 86.032L170.995 90.8152L177.233 140.425ZM291.563 128.719L267.9 136.786L267.915 136.83L267.93 136.873L291.563 128.719ZM290.37 184.567L314.35 191.638L314.377 191.546L314.403 191.453L290.37 184.567ZM263.952 234.229L244.596 218.407L244.593 218.411L263.952 234.229ZM188.253 237.163L164.636 245.364L164.643 245.385L164.651 245.406L188.253 237.163ZM189.825 181.717L213.799 188.804L213.808 188.775L213.817 188.745L189.825 181.717ZM216.053 131.854L196.641 116.101L196.627 116.118L196.613 116.136L216.053 131.854ZM232.166 170.021L252.753 184.204L252.826 184.098L252.898 183.991L232.166 170.021ZM218.901 196.805L194.925 189.725L194.876 189.89L194.829 190.056L218.901 196.805ZM220.318 222.636L200.079 237.311L200.187 237.461L200.298 237.61L220.318 222.636ZM252.698 217.693L233.29 201.934L233.274 201.954L233.257 201.974L252.698 217.693ZM263.464 196.309L239.414 189.486L239.403 189.523L239.392 189.561L263.464 196.309ZM265.845 167.459L290.662 164.436L290.638 164.243L290.612 164.05L265.845 167.459ZM262.223 129.841C263.337 129.873 263.887 130.04 264.063 130.103C264.208 130.155 264.292 130.201 264.429 130.315C264.718 130.556 266.274 132.016 267.9 136.786L315.226 120.652C311.561 109.902 305.699 99.6237 296.444 91.9088C286.886 83.9412 275.485 80.1973 263.64 79.8614L262.223 129.841ZM267.93 136.873C269.605 141.729 270.516 147.451 270.322 154.299L320.302 155.716C320.646 143.562 319.058 131.759 315.196 120.566L267.93 136.873ZM270.322 154.299C270.134 160.937 268.913 168.693 266.338 177.681L314.403 191.453C317.9 179.251 319.973 167.3 320.302 155.716L270.322 154.299ZM266.391 177.497C262.029 192.293 254.83 205.888 244.596 218.407L283.309 250.051C297.635 232.525 308.047 213.013 314.35 191.638L266.391 177.497ZM244.593 218.411C232.138 233.655 223.26 236.202 217.984 236.052L216.567 286.032C243.569 286.798 265.809 271.469 283.312 250.047L244.593 218.411ZM217.984 236.052C216.814 236.019 216.205 235.844 215.97 235.761C215.765 235.688 215.632 235.614 215.459 235.471C215.103 235.178 213.516 233.678 211.855 228.921L164.651 245.406C168.411 256.173 174.373 266.415 183.691 274.082C193.296 281.985 204.712 285.696 216.567 286.032L217.984 236.052ZM211.87 228.963C210.36 224.615 209.474 219.191 209.667 212.369L159.687 210.952C159.349 222.873 160.847 234.451 164.636 245.364L211.87 228.963ZM209.667 212.369C209.857 205.685 211.119 197.869 213.799 188.804L165.851 174.629C162.191 187.008 160.022 199.155 159.687 210.952L209.667 212.369ZM213.817 188.745C218.207 173.756 225.382 160.079 235.494 147.573L196.613 116.136C182.426 133.682 172.115 153.246 165.833 174.689L213.817 188.745ZM235.466 147.607C247.903 132.28 256.835 129.689 262.223 129.841L263.64 79.8614C236.488 79.0917 214.168 94.5022 196.641 116.101L235.466 147.607ZM255.238 128.08C233.981 127.478 219.712 143.764 211.433 156.052L252.898 183.991C254.343 181.847 255.596 180.243 256.631 179.074C257.676 177.896 258.37 177.308 258.671 177.079C259.261 176.632 257.475 178.164 253.821 178.06L255.238 128.08ZM211.578 155.839C204.125 166.657 198.4 177.956 194.925 189.725L242.878 203.884C244.59 198.085 247.708 191.528 252.753 184.204L211.578 155.839ZM194.829 190.056C193.118 196.159 191.973 202.443 191.794 208.736L241.774 210.153C241.81 208.898 242.075 206.755 242.973 203.553L194.829 190.056ZM191.794 208.736C191.527 218.182 193.598 228.374 200.079 237.311L240.558 207.961C241.213 208.865 241.554 209.719 241.703 210.276C241.838 210.779 241.756 210.808 241.774 210.153L191.794 208.736ZM200.298 237.61C208.289 248.294 219.916 253.301 231.944 253.642L233.361 203.662C233.661 203.671 234.893 203.768 236.526 204.565C238.236 205.399 239.531 206.585 240.338 207.663L200.298 237.61ZM231.944 253.642C249.415 254.138 262.888 244.852 272.138 233.411L233.257 201.974C231.743 203.848 230.957 204.231 231.137 204.132C231.249 204.071 231.551 203.927 232.017 203.811C232.49 203.695 232.96 203.651 233.361 203.662L231.944 253.642ZM272.106 233.451C279.353 224.525 284.401 214.242 287.536 203.058L239.392 189.561C237.89 194.919 235.761 198.891 233.29 201.934L272.106 233.451ZM287.515 203.133C291.128 190.399 292.246 177.436 290.662 164.436L241.029 170.482C241.77 176.566 241.3 182.836 239.414 189.486L287.515 203.133ZM290.612 164.05C289.667 157.183 287.449 148.662 281.696 141.346C275.096 132.954 265.571 128.373 255.238 128.08L253.821 178.06C252.194 178.014 249.986 177.629 247.636 176.462C245.269 175.287 243.533 173.704 242.393 172.254C240.412 169.735 240.728 168.319 241.079 170.869L290.612 164.05ZM423.984 116.842L447.117 126.323L463.357 86.6948L420.865 92.0376L423.984 116.842ZM380.878 252.003L384.36 276.76L401.497 274.35L405.276 257.461L380.878 252.003ZM336.936 258.182L312.143 254.97L307.928 287.507L340.417 282.939L336.936 258.182ZM346.191 186.736L370.984 189.948L322.273 179.459L346.191 186.736ZM326.152 252.601L329.956 277.31L345.494 274.918L350.07 259.878L326.152 252.601ZM284.351 259.036L259.652 255.169L254.363 288.947L288.155 283.745L284.351 259.036ZM297.347 124.585L293.391 99.8996L272.877 103.187L272.354 123.956L297.347 124.585ZM334.64 118.608L359.469 121.53L363.334 88.6904L330.684 93.9229L334.64 118.608ZM324.602 203.905L299.773 200.982L348.56 211.046L324.602 203.905ZM352.672 109.74L349.737 84.9132L333.411 86.8433L328.714 102.598L352.672 109.74ZM372.669 107.376L397.426 110.858L401.942 78.7419L369.734 82.5493L372.669 107.376ZM355.783 227.454L331.026 223.972L379.826 234.306L355.783 227.454ZM385.943 121.626L382.824 96.8208L366.429 98.8823L361.9 114.774L385.943 121.626ZM400.851 107.362C381.48 154.629 366.664 201.028 356.481 246.545L405.276 257.461C414.783 214.959 428.704 171.251 447.117 126.323L400.851 107.362ZM377.397 227.247L333.455 233.426L340.417 282.939L384.36 276.76L377.397 227.247ZM361.729 261.394L370.984 189.948L321.398 183.524L312.143 254.97L361.729 261.394ZM322.273 179.459L302.235 245.324L350.07 259.878L370.108 194.013L322.273 179.459ZM322.348 227.892L280.547 234.327L288.155 283.745L329.956 277.31L322.348 227.892ZM309.05 262.903C316.82 213.281 321.278 167.366 322.339 125.214L272.354 123.956C271.358 163.549 267.152 207.268 259.652 255.169L309.05 262.903ZM301.303 149.27L338.596 143.293L330.684 93.9229L293.391 99.8996L301.303 149.27ZM309.812 115.686L299.773 200.982L349.43 206.827L359.469 121.53L309.812 115.686ZM348.56 211.046L376.63 116.882L328.714 102.598L300.644 196.763L348.56 211.046ZM355.607 134.567L375.604 132.204L369.734 82.5493L349.737 84.9132L355.607 134.567ZM347.913 103.895L331.026 223.972L380.539 230.935L397.426 110.858L347.913 103.895ZM379.826 234.306L409.985 128.477L361.9 114.774L331.74 220.602L379.826 234.306ZM389.061 146.43L427.103 141.647L420.865 92.0376L382.824 96.8208L389.061 146.43Z" fill="black"/>
<path d="M67.664 278.661C61.8965 295.643 57.7313 312.15 55.1684 328.181L39.5158 331.375L41.2592 305.498L35.5174 329.608L20.6402 332.846C22.3038 315.156 22.8678 298.956 22.3323 284.247L35.6002 281.274L33.882 312.145L41.8831 277.688L49.016 276.396L45.6075 319.916L54.1009 281.222L67.664 278.661ZM66.0155 281.389L78.0279 278.739C73.7797 297.687 71.1347 314.073 70.0931 327.897L59.0223 331.36L66.0155 281.389ZM78.832 281.174L90.9077 278.311C90.8622 279.766 90.8838 281.829 90.9725 284.5C91.1842 290.871 91.581 296.463 92.1629 301.274C92.489 304.03 92.9143 306.244 93.4388 307.915L97.307 280.35L109.319 277.699C105.071 296.648 102.426 313.034 101.385 326.857L90.3841 330.318C90.3341 330.226 90.0023 329.416 89.3888 327.889L85.3891 317.61C84.724 315.943 84.3368 314.877 84.2276 314.412C83.4274 319.973 82.8326 325.363 82.4431 330.582L71.3114 334.328L78.832 281.174ZM107.936 279.926C113.264 277.967 117.802 276.925 121.55 276.801C125.767 276.66 129.012 277.655 131.288 279.784C134.437 282.821 136.086 286.589 136.236 291.086C136.29 292.726 136.137 294.467 135.776 296.308C134.223 304.614 130.152 311.972 123.565 318.382C116.976 324.744 109.529 328.603 101.226 329.958C101.285 328.924 101.675 325.839 102.396 320.703L106.944 288.19C107.58 283.338 107.911 280.584 107.936 279.926ZM118.37 291.188C116.52 300.442 115.169 309.187 114.317 317.422C117.039 314.659 119.443 311.483 121.528 307.897C124.102 303.496 125.338 299.75 125.235 296.658C125.103 292.676 122.814 290.852 118.37 291.188ZM155.637 273.065C160.603 272.9 164.208 275.548 166.453 281.007C167.626 283.829 168.269 286.95 168.382 290.37C168.491 293.65 168.118 297.227 167.261 301.101C165.746 307.717 162.948 313.861 158.869 319.53C153.893 326.449 148.5 330.005 142.69 330.198C137.678 330.365 134.025 327.719 131.733 322.261C130.612 319.578 129.996 316.55 129.884 313.177C129.773 309.85 130.169 306.226 131.07 302.303C132.584 295.64 135.358 289.474 139.391 283.806C144.365 276.84 149.781 273.26 155.637 273.065ZM153.686 290.577C151.109 290.663 148.556 292.858 146.025 297.163C143.981 300.561 142.59 303.867 141.852 307.081C141.487 308.781 141.326 310.311 141.371 311.67C141.435 313.59 141.956 315.144 142.933 316.331C144.056 317.654 145.578 318.283 147.499 318.22C150.122 318.133 152.442 316.672 154.458 313.838C156.072 311.58 157.204 308.939 157.854 305.916C158.627 302.373 158.699 298.9 158.07 295.497C157.396 292.142 155.935 290.502 153.686 290.577ZM211.613 273.879C205.845 290.861 201.68 307.368 199.117 323.399L183.465 326.593L185.208 300.716L179.466 324.826L164.589 328.064C166.252 310.374 166.816 294.174 166.281 279.465L179.549 276.492L177.831 307.363L185.832 272.906L192.965 271.614L189.556 315.134L198.05 276.44L211.613 273.879ZM239.321 270.285C244.287 270.12 247.893 272.768 250.138 278.227C251.31 281.049 251.953 284.17 252.067 287.59C252.176 290.87 251.802 294.447 250.946 298.321C249.431 304.937 246.633 311.081 242.553 316.75C237.577 323.669 232.185 327.225 226.375 327.418C221.362 327.585 217.71 324.939 215.418 319.481C214.297 316.798 213.681 313.77 213.569 310.397C213.458 307.07 213.854 303.446 214.755 299.523C216.269 292.86 219.043 286.694 223.075 281.026C228.05 274.06 233.465 270.48 239.321 270.285ZM237.371 287.797C234.794 287.883 232.24 290.078 229.71 294.383C227.665 297.781 226.274 301.087 225.537 304.301C225.171 306.001 225.011 307.531 225.056 308.89C225.12 310.81 225.641 312.364 226.618 313.551C227.741 314.874 229.263 315.504 231.183 315.44C233.807 315.353 236.127 313.892 238.143 311.058C239.757 308.8 240.888 306.159 241.538 303.136C242.312 299.593 242.384 296.12 241.755 292.717C241.081 289.362 239.619 287.722 237.371 287.797ZM262.495 285.344C262.21 286.667 261.972 287.965 261.78 289.238L261.062 293.06L273.274 290.052L272.968 299.911C268.168 300.821 263.652 301.839 259.422 302.964C258.506 309.279 257.822 315.516 257.37 321.675L245.456 325.167L252.004 274.507L275.925 270.336L275.514 283.364C270.843 283.942 266.503 284.602 262.495 285.344ZM330.895 269.917C325.128 286.899 320.963 303.405 318.4 319.437L302.747 322.63L304.491 296.753L298.749 320.863L283.872 324.101C285.535 306.411 286.099 290.212 285.564 275.503L298.832 272.529L297.113 303.4L305.114 268.944L312.247 267.652L308.839 311.172L317.332 272.478L330.895 269.917ZM346.849 266.713C351.815 266.548 355.42 269.196 357.665 274.655C358.838 277.477 359.481 280.598 359.594 284.018C359.703 287.298 359.33 290.875 358.473 294.749C356.958 301.365 354.16 307.509 350.081 313.178C345.105 320.097 339.712 323.653 333.903 323.846C328.89 324.013 325.237 321.367 322.945 315.909C321.824 313.226 321.208 310.198 321.096 306.825C320.985 303.498 321.381 299.874 322.282 295.951C323.796 289.288 326.57 283.122 330.603 277.454C335.577 270.488 340.993 266.908 346.849 266.713ZM344.898 284.225C342.321 284.311 339.768 286.506 337.237 290.811C335.193 294.209 333.802 297.515 333.064 300.729C332.699 302.429 332.538 303.959 332.583 305.318C332.647 307.238 333.168 308.792 334.145 309.979C335.268 311.302 336.79 311.931 338.711 311.868C341.334 311.781 343.654 310.32 345.67 307.486C347.284 305.228 348.416 302.587 349.066 299.564C349.839 296.021 349.911 292.548 349.282 289.145C348.608 285.79 347.147 284.15 344.898 284.225ZM360.044 271.551C367.326 269.105 373.31 267.804 377.995 267.648C384.319 267.438 387.531 269.536 387.631 273.941C387.794 280.268 384.023 286.748 376.317 293.382C377.032 295.141 379.935 300.649 385.027 309.907C382.665 312.237 379.097 315.662 374.323 320.182L366.159 301.036L366.089 301.039C365.168 307.213 364.513 312.91 364.124 318.129L353.123 321.59C353.183 320.556 353.595 317.423 354.359 312.192L360.044 271.551ZM369.267 282.36C368.899 283.967 368.577 285.573 368.302 287.176L367.477 291.988C369.088 291.09 370.668 289.935 372.216 288.524C373.99 286.87 375.158 285.307 375.718 283.834C375.939 283.405 376.042 283.003 376.03 282.628C375.996 281.597 375.299 281.105 373.941 281.15C372.863 281.186 371.305 281.589 369.267 282.36ZM387.051 270.724L399.064 268.074C396.122 281.163 393.919 293.22 392.456 304.243L404.761 301.935L404.141 315.041C397.789 315.815 389.761 317.699 380.058 320.695L387.051 270.724ZM407.518 269.974C412.847 268.015 417.385 266.973 421.133 266.849C425.349 266.708 428.595 267.703 430.87 269.832C434.02 272.869 435.669 276.637 435.818 281.134C435.873 282.774 435.72 284.515 435.359 286.356C433.806 294.662 429.735 302.02 423.147 308.43C416.558 314.792 409.112 318.651 400.808 320.006C400.868 318.972 401.258 315.887 401.978 310.751L406.526 278.238C407.163 273.386 407.493 270.632 407.518 269.974ZM417.953 281.235C416.103 290.49 414.752 299.234 413.899 307.47C416.622 304.707 419.025 301.531 421.111 297.945C423.685 293.544 424.92 289.798 424.818 286.706C424.685 282.724 422.397 280.9 417.953 281.235Z" fill="#FFCB14"/>
<path d="M67.664 278.661L77.1328 281.877L82.6417 265.656L65.8085 268.835L67.664 278.661ZM55.1684 328.181L57.1673 337.979L63.9502 336.596L65.043 329.76L55.1684 328.181ZM39.5158 331.375L29.5384 330.702L28.6563 343.796L41.5147 341.173L39.5158 331.375ZM41.2592 305.498L51.2366 306.17L31.5312 303.181L41.2592 305.498ZM35.5174 329.608L37.6441 339.379L43.7886 338.042L45.2454 331.925L35.5174 329.608ZM20.6402 332.846L10.6841 331.91L9.40364 345.526L22.7668 342.617L20.6402 332.846ZM22.3323 284.247L20.1455 274.489L12.0365 276.307L12.3389 284.611L22.3323 284.247ZM35.6002 281.274L45.5848 281.83L46.3198 268.624L33.4134 271.516L35.6002 281.274ZM33.882 312.145L23.8975 311.589L43.6229 314.407L33.882 312.145ZM41.8831 277.688L40.1005 267.848L33.6297 269.021L32.1422 275.426L41.8831 277.688ZM49.016 276.396L58.9855 277.177L59.9984 264.244L47.2334 266.556L49.016 276.396ZM45.6075 319.916L35.638 319.135L55.3749 322.06L45.6075 319.916ZM54.1009 281.222L52.2454 271.396L45.7505 272.622L44.3334 279.078L54.1009 281.222ZM58.1951 275.445C52.2651 292.906 47.9543 309.961 45.2938 326.603L65.043 329.76C67.5083 314.339 71.5279 298.38 77.1328 281.877L58.1951 275.445ZM53.1695 318.383L37.5168 321.576L41.5147 341.173L57.1673 337.979L53.1695 318.383ZM49.4932 332.047L51.2366 306.17L31.2818 304.826L29.5384 330.702L49.4932 332.047ZM31.5312 303.181L25.7895 327.291L45.2454 331.925L50.9871 307.814L31.5312 303.181ZM33.3908 319.837L18.5135 323.075L22.7668 342.617L37.6441 339.379L33.3908 319.837ZM30.5962 333.782C32.2925 315.745 32.8798 299.104 32.3256 283.883L12.3389 284.611C12.8558 298.809 12.3151 314.567 10.6841 331.91L30.5962 333.782ZM24.5191 294.005L37.787 291.032L33.4134 271.516L20.1455 274.489L24.5191 294.005ZM25.6157 280.718L23.8975 311.589L43.8666 312.701L45.5848 281.83L25.6157 280.718ZM43.6229 314.407L51.6239 279.95L32.1422 275.426L24.1412 309.883L43.6229 314.407ZM43.6657 287.528L50.7986 286.236L47.2334 266.556L40.1005 267.848L43.6657 287.528ZM39.0465 275.615L35.638 319.135L55.5769 320.697L58.9855 277.177L39.0465 275.615ZM55.3749 322.06L63.8684 283.366L44.3334 279.078L35.84 317.772L55.3749 322.06ZM55.9564 291.048L69.5195 288.487L65.8085 268.835L52.2454 271.396L55.9564 291.048ZM66.0155 281.389L63.861 271.624L57.0751 273.121L56.112 280.003L66.0155 281.389ZM78.0279 278.739L87.7856 280.927L91.2248 265.587L75.8734 268.974L78.0279 278.739ZM70.0931 327.897L73.0787 337.44L79.555 335.415L80.0648 328.648L70.0931 327.897ZM59.0223 331.36L49.1188 329.974L46.9291 345.621L62.0079 340.904L59.0223 331.36ZM68.17 291.154L80.1824 288.504L75.8734 268.974L63.861 271.624L68.17 291.154ZM68.2701 276.551C63.9544 295.801 61.2106 312.69 60.1214 327.145L80.0648 328.648C81.0589 315.456 83.6049 299.574 87.7856 280.927L68.2701 276.551ZM67.1075 318.353L56.0367 321.816L62.0079 340.904L73.0787 337.44L67.1075 318.353ZM68.9258 332.746L75.919 282.775L56.112 280.003L49.1188 329.974L68.9258 332.746ZM78.832 281.174L76.5247 271.444L69.8864 273.018L68.9306 279.773L78.832 281.174ZM90.9077 278.311L100.903 278.623L101.311 265.567L88.6004 268.581L90.9077 278.311ZM92.1629 301.274L102.094 300.099L102.092 300.086L102.091 300.073L92.1629 301.274ZM93.4388 307.915L83.8978 310.91L103.342 309.305L93.4388 307.915ZM97.307 280.35L95.1525 270.584L88.3693 272.081L87.404 278.96L97.307 280.35ZM109.319 277.699L119.077 279.887L122.516 264.547L107.165 267.934L109.319 277.699ZM101.385 326.857L104.386 336.396L110.847 334.363L111.356 327.608L101.385 326.857ZM90.3841 330.318L81.5932 335.085L85.5223 342.331L93.3852 339.857L90.3841 330.318ZM89.3888 327.889L80.0695 331.515L80.0892 331.566L80.1095 331.616L89.3888 327.889ZM85.3891 317.61L94.7084 313.983L94.6927 313.943L94.6767 313.903L85.3891 317.61ZM84.2276 314.412L93.9629 312.126L74.3295 312.988L84.2276 314.412ZM82.4431 330.582L85.633 340.059L91.9217 337.943L92.4154 331.326L82.4431 330.582ZM71.3114 334.328L61.41 332.927L59.1393 348.976L74.5013 343.806L71.3114 334.328ZM81.1393 290.905L93.2149 288.041L88.6004 268.581L76.5247 271.444L81.1393 290.905ZM80.9125 277.999C80.857 279.777 80.887 282.092 80.9781 284.832L100.967 284.168C100.881 281.567 100.867 279.756 100.903 278.623L80.9125 277.999ZM80.9781 284.832C81.1965 291.409 81.6096 297.302 82.2353 302.475L102.091 300.073C101.552 295.624 101.172 290.333 100.967 284.168L80.9781 284.832ZM82.2322 302.449C82.5943 305.51 83.1119 308.406 83.8978 310.91L102.98 304.92C102.717 304.082 102.384 302.551 102.094 300.099L82.2322 302.449ZM103.342 309.305L107.21 281.739L87.404 278.96L83.5358 306.525L103.342 309.305ZM99.4615 290.115L111.474 287.464L107.165 267.934L95.1525 270.584L99.4615 290.115ZM99.5616 275.512C95.2458 294.761 92.5021 311.65 91.4129 326.106L111.356 327.608C112.35 314.417 114.896 298.534 119.077 279.887L99.5616 275.512ZM98.3835 317.318L87.383 320.779L93.3852 339.857L104.386 336.396L98.3835 317.318ZM99.1749 325.551C99.2554 325.7 99.3152 325.819 99.3468 325.883C99.382 325.955 99.4094 326.013 99.427 326.05C99.4612 326.123 99.4851 326.177 99.4937 326.196C99.5115 326.236 99.5168 326.249 99.5029 326.217C99.4774 326.156 99.429 326.04 99.3513 325.85C99.1985 325.478 98.9724 324.919 98.6681 324.161L80.1095 331.616C80.4188 332.386 80.6652 332.996 80.8443 333.433C80.8474 333.44 81.2325 334.419 81.5932 335.085L99.1749 325.551ZM98.7081 324.262L94.7084 313.983L76.0697 321.236L80.0695 331.515L98.7081 324.262ZM94.6767 313.903C94.3634 313.118 94.1427 312.542 93.999 312.146C93.9273 311.949 93.8892 311.836 93.8742 311.79C93.8484 311.71 93.8989 311.854 93.9629 312.126L74.4923 316.698C74.8091 318.047 75.5283 319.88 76.1015 321.316L94.6767 313.903ZM74.3295 312.988C73.4992 318.758 72.8785 324.375 72.4709 329.838L92.4154 331.326C92.7867 326.35 93.3556 321.188 94.1256 315.836L74.3295 312.988ZM79.2532 321.104L68.1215 324.851L74.5013 343.806L85.633 340.059L79.2532 321.104ZM81.2128 335.729L88.7334 282.575L68.9306 279.773L61.41 332.927L81.2128 335.729ZM107.936 279.926L104.485 270.541L98.1981 272.852L97.9429 279.545L107.936 279.926ZM131.288 279.784L138.23 272.586L138.175 272.533L138.12 272.482L131.288 279.784ZM135.776 296.308L125.963 294.384L125.955 294.427L125.947 294.47L135.776 296.308ZM123.565 318.382L130.511 325.575L130.525 325.562L130.538 325.549L123.565 318.382ZM101.226 329.958L91.2424 329.384L90.5262 341.835L102.836 339.827L101.226 329.958ZM102.396 320.703L112.299 322.092L112.299 322.088L102.396 320.703ZM106.944 288.19L116.847 289.576L116.853 289.533L116.859 289.49L106.944 288.19ZM118.37 291.188L117.618 281.216L110.052 281.787L108.564 289.227L118.37 291.188ZM114.317 317.422L104.37 316.393L101.436 344.75L121.441 324.44L114.317 317.422ZM121.528 307.897L112.896 302.847L112.89 302.859L112.883 302.871L121.528 307.897ZM111.387 289.312C116.174 287.552 119.598 286.871 121.882 286.795L121.218 266.806C116.006 266.979 110.354 268.382 104.485 270.541L111.387 289.312ZM121.882 286.795C123.144 286.753 123.871 286.896 124.218 287.003C124.517 287.094 124.527 287.152 124.455 287.086L138.12 272.482C133.302 267.974 127.121 266.61 121.218 266.806L121.882 286.795ZM124.345 286.981C125.565 288.158 126.176 289.437 126.241 291.418L146.23 290.754C145.997 283.741 143.309 277.485 138.23 272.586L124.345 286.981ZM126.241 291.418C126.267 292.203 126.199 293.182 125.963 294.384L145.589 298.232C146.076 295.752 146.313 293.249 146.23 290.754L126.241 291.418ZM125.947 294.47C124.806 300.568 121.836 306.111 116.591 311.214L130.538 325.549C138.469 317.833 143.64 308.66 145.606 298.146L125.947 294.47ZM116.618 311.188C111.358 316.268 105.73 319.091 99.6158 320.088L102.836 339.827C113.328 338.116 122.594 333.221 130.511 325.575L116.618 311.188ZM111.209 330.532C111.209 330.539 111.221 330.36 111.273 329.883C111.321 329.445 111.391 328.863 111.484 328.123C111.671 326.645 111.941 324.641 112.299 322.092L92.4928 319.314C91.8019 324.239 91.3315 327.834 91.2424 329.384L111.209 330.532ZM112.299 322.088L116.847 289.576L97.0403 286.805L92.4923 319.318L112.299 322.088ZM116.859 289.49C117.451 284.977 117.881 281.562 117.928 280.307L97.9429 279.545C97.9508 279.339 97.96 279.33 97.9135 279.776C97.8766 280.129 97.8199 280.629 97.7402 281.294C97.5813 282.618 97.345 284.478 97.0287 286.89L116.859 289.49ZM108.564 289.227C106.661 298.748 105.258 307.805 104.37 316.393L124.264 318.452C125.079 310.568 126.379 302.135 128.176 293.148L108.564 289.227ZM121.441 324.44C124.791 321.039 127.696 317.184 130.173 312.922L112.883 302.871C111.19 305.783 109.287 308.279 107.193 310.405L121.441 324.44ZM130.16 312.946C133.132 307.864 135.423 302.163 135.23 296.326L115.241 296.99C115.252 297.337 115.072 299.128 112.896 302.847L130.16 312.946ZM135.23 296.326C135.103 292.522 133.834 287.815 129.651 284.483C125.719 281.35 121.077 280.955 117.618 281.216L119.122 301.159C120.107 301.085 118.832 301.434 117.188 300.124C115.294 298.615 115.235 296.812 115.241 296.99L135.23 296.326ZM166.453 281.007L157.205 284.81L157.212 284.827L157.219 284.844L166.453 281.007ZM167.261 301.101L177.009 303.334L177.018 303.296L177.026 303.259L167.261 301.101ZM158.869 319.53L150.752 313.69L150.75 313.692L158.869 319.53ZM131.733 322.261L122.506 326.116L122.51 326.124L122.513 326.132L131.733 322.261ZM131.07 302.303L140.816 304.543L140.819 304.531L140.822 304.519L131.07 302.303ZM139.391 283.806L131.253 277.994L131.248 278.001L131.242 278.009L139.391 283.806ZM146.025 297.163L154.594 302.319L154.62 302.275L154.646 302.23L146.025 297.163ZM141.852 307.081L132.105 304.844L132.09 304.911L132.076 304.979L141.852 307.081ZM142.933 316.331L135.214 322.688L135.261 322.745L135.309 322.802L142.933 316.331ZM154.458 313.838L146.322 308.024L146.316 308.032L146.31 308.041L154.458 313.838ZM157.854 305.916L148.084 303.783L148.08 303.799L148.077 303.814L157.854 305.916ZM158.07 295.497L167.904 293.679L167.89 293.603L167.874 293.526L158.07 295.497ZM155.969 283.06C156.277 283.049 156.372 283.088 156.324 283.074C156.265 283.057 156.19 283.019 156.147 282.988C156.068 282.93 156.563 283.249 157.205 284.81L175.702 277.204C174.099 273.306 171.668 269.572 167.984 266.867C164.172 264.068 159.766 262.923 155.305 263.071L155.969 283.06ZM157.219 284.844C157.877 286.428 158.309 288.343 158.388 290.702L178.377 290.038C178.228 285.557 177.375 281.231 175.688 277.171L157.219 284.844ZM158.388 290.702C158.464 292.993 158.209 295.722 157.497 298.943L177.026 303.259C178.026 298.731 178.519 294.307 178.377 290.038L158.388 290.702ZM157.514 298.868C156.305 304.147 154.076 309.07 150.752 313.69L166.986 325.371C171.821 318.651 175.187 311.287 177.009 303.334L157.514 298.868ZM150.75 313.692C146.706 319.315 143.823 320.155 142.358 320.204L143.023 340.193C153.176 339.856 161.079 333.584 166.987 325.369L150.75 313.692ZM142.358 320.204C142.03 320.215 141.912 320.175 141.937 320.182C141.973 320.192 142.03 320.22 142.058 320.241C142.112 320.279 141.607 319.945 140.954 318.389L122.513 326.132C124.152 330.035 126.619 333.753 130.325 336.437C134.152 339.209 138.56 340.341 143.023 340.193L142.358 320.204ZM140.96 318.406C140.375 317.005 139.957 315.198 139.878 312.845L119.889 313.509C120.035 317.902 120.85 322.151 122.506 326.116L140.96 318.406ZM139.878 312.845C139.802 310.541 140.07 307.792 140.816 304.543L121.324 300.063C120.268 304.66 119.745 309.16 119.889 313.509L139.878 312.845ZM140.822 304.519C142.038 299.167 144.258 294.215 147.539 289.603L131.242 278.009C126.458 284.733 123.131 292.113 121.319 300.088L140.822 304.519ZM147.528 289.617C151.564 283.966 154.465 283.11 155.969 283.06L155.305 263.071C145.096 263.41 137.166 269.714 131.253 277.994L147.528 289.617ZM153.354 280.583C145.138 280.856 140.126 287.465 137.404 292.096L154.646 302.23C155.1 301.458 155.49 300.892 155.804 300.49C156.122 300.085 156.314 299.908 156.357 299.871C156.399 299.835 156.226 299.994 155.82 300.174C155.39 300.366 154.771 300.547 154.018 300.572L153.354 280.583ZM137.457 292.007C134.975 296.133 133.121 300.417 132.105 304.844L151.599 309.317C152.058 307.317 152.987 304.99 154.594 302.319L137.457 292.007ZM132.076 304.979C131.583 307.268 131.298 309.635 131.377 312.002L151.366 311.337C151.354 310.986 151.39 310.294 151.629 309.183L132.076 304.979ZM131.377 312.002C131.495 315.566 132.515 319.411 135.214 322.688L150.653 309.974C150.991 310.385 151.19 310.794 151.292 311.099C151.387 311.383 151.371 311.492 151.366 311.337L131.377 312.002ZM135.309 322.802C138.637 326.724 143.233 328.367 147.831 328.214L147.167 308.225C147.393 308.218 147.983 308.242 148.739 308.555C149.527 308.881 150.147 309.376 150.558 309.861L135.309 322.802ZM147.831 328.214C154.526 327.992 159.419 324.115 162.607 319.635L146.31 308.041C145.864 308.668 145.68 308.721 145.878 308.596C145.986 308.529 146.169 308.433 146.421 308.354C146.676 308.274 146.933 308.233 147.167 308.225L147.831 328.214ZM162.595 319.652C165.089 316.161 166.726 312.224 167.63 308.018L148.077 303.814C147.681 305.654 147.055 306.999 146.322 308.024L162.595 319.652ZM167.624 308.049C168.667 303.269 168.786 298.452 167.904 293.679L148.237 297.314C148.613 299.347 148.587 301.476 148.084 303.783L167.624 308.049ZM167.874 293.526C167.365 290.995 166.329 287.786 163.934 285.098C161.174 282.001 157.361 280.45 153.354 280.583L154.018 300.572C153.305 300.595 152.356 300.486 151.338 300.056C150.313 299.624 149.534 299.001 149.003 298.404C148.069 297.356 148.101 296.645 148.266 297.467L167.874 293.526ZM211.613 273.879L221.081 277.095L226.59 260.874L209.757 264.053L211.613 273.879ZM199.117 323.399L201.116 333.198L207.899 331.814L208.992 324.978L199.117 323.399ZM183.465 326.593L173.487 325.92L172.605 339.014L185.463 336.391L183.465 326.593ZM185.208 300.716L195.185 301.388L175.48 298.399L185.208 300.716ZM179.466 324.826L181.593 334.597L187.737 333.26L189.194 327.143L179.466 324.826ZM164.589 328.064L154.633 327.128L153.352 340.744L166.716 337.835L164.589 328.064ZM166.281 279.465L164.094 269.707L155.985 271.525L156.288 279.829L166.281 279.465ZM179.549 276.492L189.533 277.048L190.268 263.842L177.362 266.734L179.549 276.492ZM177.831 307.363L167.846 306.807L187.572 309.625L177.831 307.363ZM185.832 272.906L184.049 263.067L177.578 264.239L176.091 270.644L185.832 272.906ZM192.965 271.614L202.934 272.395L203.947 259.462L191.182 261.774L192.965 271.614ZM189.556 315.134L179.587 314.353L199.324 317.278L189.556 315.134ZM198.05 276.44L196.194 266.614L189.699 267.84L188.282 274.296L198.05 276.44ZM202.144 270.663C196.214 288.124 191.903 305.179 189.242 321.821L208.992 324.978C211.457 309.557 215.477 293.598 221.081 277.095L202.144 270.663ZM197.118 313.601L181.466 316.795L185.463 336.391L201.116 333.198L197.118 313.601ZM193.442 327.265L195.185 301.388L175.23 300.044L173.487 325.92L193.442 327.265ZM175.48 298.399L169.738 322.509L189.194 327.143L194.936 303.033L175.48 298.399ZM177.34 315.055L162.462 318.293L166.716 337.835L181.593 334.597L177.34 315.055ZM174.545 329C176.241 310.963 176.829 294.322 176.274 279.102L156.288 279.829C156.804 294.027 156.264 309.785 154.633 327.128L174.545 329ZM168.468 289.223L181.736 286.25L177.362 266.734L164.094 269.707L168.468 289.223ZM169.564 275.936L167.846 306.807L187.815 307.919L189.533 277.048L169.564 275.936ZM187.572 309.625L195.573 275.168L176.091 270.644L168.09 305.101L187.572 309.625ZM187.614 282.746L194.747 281.454L191.182 261.774L184.049 263.067L187.614 282.746ZM182.995 270.833L179.587 314.353L199.526 315.915L202.934 272.395L182.995 270.833ZM199.324 317.278L207.817 278.584L188.282 274.296L179.789 312.99L199.324 317.278ZM199.905 286.267L213.468 283.705L209.757 264.053L196.194 266.614L199.905 286.267ZM250.138 278.227L240.889 282.03L240.896 282.047L240.903 282.064L250.138 278.227ZM250.946 298.321L260.694 300.554L260.702 300.516L260.711 300.479L250.946 298.321ZM242.553 316.75L234.436 310.91L234.435 310.912L242.553 316.75ZM215.418 319.481L206.191 323.336L206.195 323.344L206.198 323.352L215.418 319.481ZM214.755 299.523L224.501 301.763L224.504 301.751L224.507 301.739L214.755 299.523ZM223.075 281.026L214.937 275.214L214.932 275.221L214.927 275.229L223.075 281.026ZM229.71 294.383L238.278 299.539L238.305 299.495L238.331 299.45L229.71 294.383ZM225.537 304.301L215.79 302.064L215.775 302.131L215.76 302.199L225.537 304.301ZM226.618 313.551L218.899 319.908L218.946 319.965L218.994 320.022L226.618 313.551ZM238.143 311.058L230.007 305.244L230.001 305.252L229.995 305.261L238.143 311.058ZM241.538 303.136L231.768 301.003L231.765 301.019L231.762 301.034L241.538 303.136ZM241.755 292.717L251.588 290.899L251.574 290.823L251.559 290.746L241.755 292.717ZM239.653 280.28C239.961 280.27 240.056 280.308 240.009 280.294C239.949 280.277 239.875 280.239 239.832 280.208C239.753 280.15 240.247 280.469 240.889 282.03L259.387 274.424C257.784 270.526 255.353 266.792 251.669 264.087C247.857 261.288 243.451 260.143 238.989 260.291L239.653 280.28ZM240.903 282.064C241.561 283.648 241.994 285.563 242.073 287.922L262.062 287.258C261.913 282.777 261.06 278.451 259.373 274.391L240.903 282.064ZM242.073 287.922C242.149 290.213 241.894 292.942 241.182 296.163L260.711 300.479C261.711 295.952 262.203 291.527 262.062 287.258L242.073 287.922ZM241.199 296.088C239.989 301.367 237.761 306.29 234.436 310.91L250.671 322.591C255.506 315.871 258.872 308.507 260.694 300.554L241.199 296.088ZM234.435 310.912C230.391 316.535 227.508 317.375 226.043 317.424L226.707 337.413C236.861 337.076 244.764 330.804 250.672 322.589L234.435 310.912ZM226.043 317.424C225.715 317.435 225.597 317.395 225.622 317.402C225.658 317.412 225.714 317.44 225.743 317.461C225.796 317.499 225.291 317.165 224.638 315.609L206.198 323.352C207.837 327.255 210.304 330.973 214.01 333.657C217.836 336.429 222.244 337.561 226.707 337.413L226.043 317.424ZM224.645 315.626C224.06 314.225 223.641 312.418 223.563 310.065L203.574 310.729C203.72 315.122 204.534 319.371 206.191 323.336L224.645 315.626ZM223.563 310.065C223.487 307.761 223.754 305.012 224.501 301.763L205.009 297.283C203.953 301.88 203.43 306.38 203.574 310.729L223.563 310.065ZM224.507 301.739C225.723 296.387 227.942 291.435 231.224 286.823L214.927 275.229C210.143 281.953 206.816 289.333 205.004 297.308L224.507 301.739ZM231.213 286.837C235.249 281.186 238.149 280.33 239.653 280.28L238.989 260.291C228.781 260.63 220.851 266.934 214.937 275.214L231.213 286.837ZM237.039 277.803C228.823 278.076 223.811 284.685 221.089 289.316L238.331 299.45C238.785 298.678 239.175 298.112 239.489 297.71C239.807 297.305 239.998 297.128 240.042 297.091C240.084 297.055 239.911 297.214 239.505 297.394C239.075 297.586 238.456 297.767 237.703 297.792L237.039 277.803ZM221.142 289.227C218.659 293.353 216.806 297.637 215.79 302.064L235.284 306.537C235.743 304.537 236.671 302.21 238.278 299.539L221.142 289.227ZM215.76 302.199C215.268 304.488 214.983 306.855 215.062 309.222L235.051 308.558C235.039 308.206 235.075 307.514 235.314 306.403L215.76 302.199ZM215.062 309.222C215.18 312.786 216.2 316.631 218.899 319.908L234.338 307.194C234.676 307.605 234.874 308.014 234.976 308.319C235.072 308.603 235.056 308.712 235.051 308.558L215.062 309.222ZM218.994 320.022C222.322 323.944 226.918 325.587 231.515 325.434L230.851 305.445C231.078 305.438 231.668 305.462 232.424 305.775C233.212 306.101 233.832 306.596 234.242 307.081L218.994 320.022ZM231.515 325.434C238.211 325.212 243.104 321.335 246.291 316.855L229.995 305.261C229.548 305.888 229.365 305.941 229.563 305.816C229.671 305.749 229.854 305.653 230.106 305.574C230.361 305.494 230.618 305.453 230.851 305.445L231.515 325.434ZM246.28 316.872C248.774 313.381 250.411 309.444 251.315 305.238L231.762 301.034C231.366 302.874 230.739 304.219 230.007 305.244L246.28 316.872ZM251.308 305.269C252.351 300.489 252.471 295.672 251.588 290.899L231.922 294.534C232.297 296.567 232.272 298.696 231.768 301.003L251.308 305.269ZM251.559 290.746C251.05 288.215 250.014 285.006 247.619 282.318C244.859 279.221 241.046 277.67 237.039 277.803L237.703 297.792C236.989 297.815 236.041 297.706 235.023 297.276C233.997 296.844 233.219 296.221 232.688 295.624C231.754 294.576 231.786 293.865 231.951 294.687L251.559 290.746ZM262.495 285.344L260.672 275.512L254.119 276.726L252.718 283.243L262.495 285.344ZM261.78 289.238L271.608 291.082L271.641 290.907L271.667 290.731L261.78 289.238ZM261.062 293.06L251.234 291.216L248.369 306.487L263.455 302.77L261.062 293.06ZM273.274 290.052L283.269 290.362L283.677 277.189L270.882 280.342L273.274 290.052ZM272.968 299.911L274.831 309.736L282.715 308.242L282.963 300.221L272.968 299.911ZM259.422 302.964L256.851 293.3L250.472 294.997L249.525 301.529L259.422 302.964ZM257.37 321.675L260.182 331.272L266.836 329.322L267.343 322.407L257.37 321.675ZM245.456 325.167L235.538 323.885L233.576 339.068L248.268 334.763L245.456 325.167ZM252.004 274.507L250.286 264.656L243.031 265.921L242.086 273.225L252.004 274.507ZM275.925 270.336L285.921 270.651L286.308 258.374L274.208 260.484L275.925 270.336ZM275.514 283.364L276.741 293.289L285.239 292.238L285.509 283.68L275.514 283.364ZM252.718 283.243C252.392 284.757 252.116 286.257 251.892 287.744L271.667 290.731C271.827 289.672 272.028 288.578 272.271 287.446L252.718 283.243ZM251.951 287.394L251.234 291.216L270.891 294.904L271.608 291.082L251.951 287.394ZM263.455 302.77L275.666 299.761L270.882 280.342L258.67 283.351L263.455 302.77ZM263.279 289.742L262.973 299.601L282.963 300.221L283.269 290.362L263.279 289.742ZM271.106 290.086C266.094 291.036 261.34 292.106 256.851 293.3L261.992 312.628C265.964 311.571 270.241 310.606 274.831 309.736L271.106 290.086ZM249.525 301.529C248.577 308.07 247.866 314.541 247.397 320.943L267.343 322.407C267.777 316.491 268.435 310.489 269.318 304.399L249.525 301.529ZM254.558 312.079L242.644 315.57L248.268 334.763L260.182 331.272L254.558 312.079ZM255.373 326.448L261.921 275.789L242.086 273.225L235.538 323.885L255.373 326.448ZM253.722 284.358L277.643 280.187L274.208 260.484L250.286 264.656L253.722 284.358ZM265.93 270.02L265.519 283.049L285.509 283.68L285.921 270.651L265.93 270.02ZM274.288 273.44C269.447 274.038 264.906 274.727 260.672 275.512L264.317 295.177C268.101 294.476 272.24 293.845 276.741 293.289L274.288 273.44ZM330.895 269.917L340.364 273.132L345.873 256.912L329.04 260.09L330.895 269.917ZM318.4 319.437L320.399 329.235L327.182 327.851L328.274 321.015L318.4 319.437ZM302.747 322.63L292.77 321.958L291.888 335.052L304.746 332.428L302.747 322.63ZM304.491 296.753L314.468 297.426L294.763 294.437L304.491 296.753ZM298.749 320.863L300.875 330.635L307.02 329.297L308.477 323.18L298.749 320.863ZM283.872 324.101L273.915 323.165L272.635 336.781L285.998 333.873L283.872 324.101ZM285.564 275.503L283.377 265.745L275.268 267.562L275.57 275.867L285.564 275.503ZM298.832 272.529L308.816 273.085L309.551 259.879L296.645 262.771L298.832 272.529ZM297.113 303.4L287.129 302.845L306.854 305.662L297.113 303.4ZM305.114 268.944L303.332 259.104L296.861 260.276L295.374 266.682L305.114 268.944ZM312.247 267.652L322.217 268.432L323.23 255.499L310.465 257.812L312.247 267.652ZM308.839 311.172L298.869 310.391L318.606 313.316L308.839 311.172ZM317.332 272.478L315.477 262.651L308.982 263.878L307.565 270.334L317.332 272.478ZM321.426 266.701C315.496 284.161 311.186 301.216 308.525 317.858L328.274 321.015C330.74 305.594 334.759 289.636 340.364 273.132L321.426 266.701ZM316.401 309.639L300.748 312.832L304.746 332.428L320.399 329.235L316.401 309.639ZM312.725 323.302L314.468 297.426L294.513 296.081L292.77 321.958L312.725 323.302ZM294.763 294.437L289.021 318.547L308.477 323.18L314.218 299.07L294.763 294.437ZM296.622 311.092L281.745 314.33L285.998 333.873L300.875 330.635L296.622 311.092ZM293.828 325.038C295.524 307.001 296.111 290.36 295.557 275.139L275.57 275.867C276.087 290.064 275.546 305.822 273.915 323.165L293.828 325.038ZM287.75 285.261L301.018 282.287L296.645 262.771L283.377 265.745L287.75 285.261ZM288.847 271.974L287.129 302.845L307.098 303.956L308.816 273.085L288.847 271.974ZM306.854 305.662L314.855 271.206L295.374 266.682L287.373 301.138L306.854 305.662ZM306.897 278.784L314.03 277.491L310.465 257.812L303.332 259.104L306.897 278.784ZM302.278 266.871L298.869 310.391L318.808 311.952L322.217 268.432L302.278 266.871ZM318.606 313.316L327.1 274.622L307.565 270.334L299.071 309.028L318.606 313.316ZM319.188 282.304L332.751 279.743L329.04 260.09L315.477 262.651L319.188 282.304ZM357.665 274.655L348.417 278.458L348.424 278.475L348.431 278.492L357.665 274.655ZM358.473 294.749L368.221 296.982L368.23 296.944L368.238 296.907L358.473 294.749ZM350.081 313.178L341.964 307.338L341.962 307.34L350.081 313.178ZM322.945 315.909L313.718 319.764L313.722 319.772L313.725 319.78L322.945 315.909ZM322.282 295.951L332.028 298.191L332.031 298.179L332.034 298.167L322.282 295.951ZM330.603 277.454L322.465 271.642L322.46 271.649L322.454 271.657L330.603 277.454ZM337.237 290.811L345.806 295.967L345.832 295.923L345.858 295.878L337.237 290.811ZM333.064 300.729L323.318 298.492L323.302 298.559L323.288 298.627L333.064 300.729ZM334.145 309.979L326.426 316.336L326.473 316.393L326.521 316.45L334.145 309.979ZM345.67 307.486L337.534 301.672L337.528 301.68L337.522 301.689L345.67 307.486ZM349.066 299.564L339.296 297.431L339.292 297.447L339.289 297.462L349.066 299.564ZM349.282 289.145L359.116 287.327L359.102 287.251L359.086 287.174L349.282 289.145ZM347.181 276.708C347.489 276.697 347.584 276.736 347.536 276.722C347.477 276.705 347.402 276.667 347.359 276.636C347.28 276.578 347.775 276.897 348.417 278.458L366.914 270.852C365.311 266.954 362.88 263.22 359.196 260.515C355.384 257.716 350.978 256.571 346.517 256.719L347.181 276.708ZM348.431 278.492C349.089 280.076 349.521 281.991 349.6 284.35L369.589 283.686C369.44 279.205 368.587 274.879 366.9 270.819L348.431 278.492ZM349.6 284.35C349.676 286.641 349.421 289.37 348.709 292.591L368.238 296.907C369.238 292.38 369.731 287.955 369.589 283.686L349.6 284.35ZM348.726 292.516C347.517 297.795 345.288 302.718 341.964 307.338L358.198 319.019C363.033 312.299 366.399 304.935 368.221 296.982L348.726 292.516ZM341.962 307.34C337.918 312.963 335.035 313.803 333.57 313.852L334.235 333.841C344.388 333.504 352.291 327.232 358.199 319.017L341.962 307.34ZM333.57 313.852C333.242 313.863 333.124 313.823 333.149 313.83C333.185 313.84 333.242 313.868 333.27 313.889C333.324 313.927 332.819 313.593 332.166 312.037L313.725 319.78C315.364 323.683 317.831 327.401 321.537 330.085C325.364 332.857 329.772 333.989 334.235 333.841L333.57 313.852ZM332.173 312.054C331.587 310.653 331.169 308.846 331.09 306.493L311.101 307.157C311.247 311.55 312.062 315.799 313.718 319.764L332.173 312.054ZM331.09 306.493C331.014 304.189 331.282 301.44 332.028 298.191L312.537 293.711C311.48 298.308 310.957 302.808 311.101 307.157L331.09 306.493ZM332.034 298.167C333.25 292.815 335.47 287.863 338.751 283.251L322.454 271.657C317.67 278.381 314.343 285.761 312.531 293.736L332.034 298.167ZM338.74 283.265C342.776 277.614 345.677 276.758 347.181 276.708L346.517 256.719C336.308 257.058 328.378 263.362 322.465 271.642L338.74 283.265ZM344.566 274.231C336.35 274.504 331.338 281.113 328.616 285.744L345.858 295.878C346.312 295.106 346.702 294.54 347.016 294.138C347.334 293.733 347.526 293.556 347.569 293.519C347.611 293.483 347.438 293.642 347.032 293.822C346.602 294.014 345.983 294.195 345.23 294.22L344.566 274.231ZM328.669 285.655C326.187 289.781 324.333 294.065 323.318 298.492L342.811 302.965C343.27 300.965 344.199 298.638 345.806 295.967L328.669 285.655ZM323.288 298.627C322.795 300.916 322.51 303.283 322.589 305.65L342.578 304.985C342.566 304.634 342.602 303.942 342.841 302.831L323.288 298.627ZM322.589 305.65C322.707 309.214 323.727 313.059 326.426 316.336L341.865 303.622C342.203 304.033 342.402 304.442 342.504 304.747C342.599 305.031 342.583 305.14 342.578 304.985L322.589 305.65ZM326.521 316.45C329.849 320.372 334.446 322.015 339.043 321.862L338.379 301.873C338.605 301.866 339.195 301.89 339.951 302.203C340.739 302.529 341.359 303.024 341.77 303.509L326.521 316.45ZM339.043 321.862C345.738 321.64 350.631 317.763 353.819 313.283L337.522 301.689C337.076 302.316 336.892 302.369 337.09 302.244C337.198 302.177 337.381 302.081 337.633 302.002C337.888 301.922 338.145 301.881 338.379 301.873L339.043 321.862ZM353.807 313.3C356.301 309.809 357.938 305.872 358.842 301.666L339.289 297.462C338.893 299.302 338.267 300.647 337.534 301.672L353.807 313.3ZM358.836 301.697C359.879 296.917 359.998 292.1 359.116 287.327L339.449 290.962C339.825 292.995 339.799 295.124 339.296 297.431L358.836 301.697ZM359.086 287.174C358.577 284.643 357.541 281.434 355.146 278.746C352.386 275.649 348.573 274.098 344.566 274.231L345.23 294.22C344.517 294.243 343.568 294.134 342.55 293.704C341.525 293.272 340.746 292.649 340.215 292.052C339.281 291.004 339.313 290.293 339.478 291.115L359.086 287.174ZM360.044 271.551L356.86 262.072L350.997 264.041L350.141 270.166L360.044 271.551ZM387.631 273.941L377.633 274.167L377.634 274.183L377.634 274.199L387.631 273.941ZM376.317 293.382L369.792 285.804L364.347 290.493L367.053 297.149L376.317 293.382ZM385.027 309.907L392.05 317.026L397.433 311.715L393.789 305.088L385.027 309.907ZM374.323 320.182L365.124 324.104L370.761 337.325L381.198 327.444L374.323 320.182ZM366.159 301.036L375.358 297.114L372.672 290.814L365.827 291.042L366.159 301.036ZM366.089 301.039L365.757 291.044L357.427 291.321L356.198 299.564L366.089 301.039ZM364.124 318.129L367.125 327.668L373.592 325.633L374.096 318.873L364.124 318.129ZM353.123 321.59L343.14 321.016L342.308 335.476L356.125 331.129L353.123 321.59ZM354.359 312.192L364.254 313.638L364.258 313.608L364.263 313.577L354.359 312.192ZM369.267 282.36L365.728 273.008L360.719 274.903L359.521 280.124L369.267 282.36ZM367.477 291.988L357.621 290.297L354.089 310.892L372.343 300.724L367.477 291.988ZM372.216 288.524L378.954 295.912L378.994 295.876L379.034 295.839L372.216 288.524ZM375.718 283.834L366.82 279.271L366.569 279.761L366.373 280.276L375.718 283.834ZM363.228 281.031C370.097 278.723 375.032 277.752 378.327 277.643L377.663 257.654C371.588 257.856 364.555 259.487 356.86 262.072L363.228 281.031ZM378.327 277.643C379.361 277.609 379.954 277.682 380.213 277.733C380.471 277.784 380.193 277.772 379.679 277.437C379.097 277.057 378.482 276.433 378.061 275.608C377.667 274.834 377.635 274.259 377.633 274.167L397.628 273.716C397.517 268.784 395.425 263.833 390.615 260.691C386.495 258.001 381.668 257.521 377.663 257.654L378.327 277.643ZM377.634 274.199C377.683 276.094 376.593 279.949 369.792 285.804L382.842 300.961C391.453 293.547 397.905 284.441 397.628 273.683L377.634 274.199ZM367.053 297.149C368.048 299.595 371.337 305.767 376.264 314.726L393.789 305.088C391.255 300.481 389.289 296.848 387.877 294.17C387.17 292.829 386.62 291.76 386.215 290.947C386.013 290.541 385.858 290.221 385.744 289.978C385.624 289.72 385.579 289.613 385.58 289.616L367.053 297.149ZM378.004 302.788C375.718 305.043 372.21 308.411 367.448 312.92L381.198 327.444C385.984 322.912 389.613 319.43 392.05 317.026L378.004 302.788ZM383.522 316.26L375.358 297.114L356.961 304.959L365.124 324.104L383.522 316.26ZM365.827 291.042L365.757 291.044L366.421 311.033L366.491 311.031L365.827 291.042ZM356.198 299.564C355.248 305.937 354.563 311.88 354.152 317.385L374.096 318.873C374.464 313.94 375.089 308.49 375.98 302.513L356.198 299.564ZM361.123 308.59L350.122 312.051L356.125 331.129L367.125 327.668L361.123 308.59ZM363.107 322.164C363.105 322.193 363.116 322.028 363.171 321.545C363.22 321.106 363.293 320.519 363.392 319.769C363.589 318.27 363.875 316.233 364.254 313.638L344.464 310.747C343.734 315.747 343.231 319.43 343.14 321.016L363.107 322.164ZM364.263 313.577L369.948 272.937L350.141 270.166L344.455 310.807L364.263 313.577ZM359.521 280.124C359.111 281.909 358.752 283.697 358.446 285.486L378.158 288.867C378.401 287.448 378.686 286.025 379.014 284.597L359.521 280.124ZM358.446 285.486L357.621 290.297L377.333 293.678L378.158 288.867L358.446 285.486ZM372.343 300.724C374.712 299.404 376.912 297.775 378.954 295.912L365.477 281.135C364.424 282.095 363.465 282.776 362.61 283.251L372.343 300.724ZM379.034 295.839C381.381 293.652 383.744 290.858 385.064 287.393L366.373 280.276C366.49 279.968 366.565 279.919 366.41 280.127C366.258 280.331 365.949 280.695 365.398 281.208L379.034 295.839ZM384.616 288.398C385.395 286.88 386.107 284.789 386.025 282.296L366.036 282.96C365.978 281.217 366.482 279.93 366.82 279.271L384.616 288.398ZM386.025 282.296C385.928 279.385 384.703 275.76 381.258 273.322C378.348 271.263 375.267 271.1 373.609 271.155L374.273 291.144C373.973 291.154 371.92 291.215 369.706 289.649C366.958 287.704 366.098 284.841 366.036 282.96L386.025 282.296ZM373.609 271.155C370.806 271.248 367.966 272.161 365.728 273.008L372.807 291.713C373.597 291.414 374.14 291.246 374.472 291.16C374.632 291.118 374.699 291.107 374.687 291.109C374.68 291.111 374.532 291.136 374.273 291.144L373.609 271.155ZM387.051 270.724L384.897 260.959L378.111 262.456L377.148 269.338L387.051 270.724ZM399.064 268.074L408.82 270.267L412.27 254.92L396.909 258.309L399.064 268.074ZM392.456 304.243L382.543 302.928L380.726 316.618L394.3 314.072L392.456 304.243ZM404.761 301.935L414.75 302.407L415.348 289.775L402.918 292.106L404.761 301.935ZM404.141 315.041L405.351 324.967L413.731 323.947L414.13 315.513L404.141 315.041ZM380.058 320.695L370.155 319.309L367.974 334.892L383.008 330.25L380.058 320.695ZM389.206 280.49L401.218 277.839L396.909 258.309L384.897 260.959L389.206 280.49ZM389.307 265.881C386.313 279.204 384.052 291.557 382.543 302.928L402.369 305.559C403.786 294.883 405.931 283.123 408.82 270.267L389.307 265.881ZM394.3 314.072L406.605 311.763L402.918 292.106L390.612 294.415L394.3 314.072ZM394.772 301.462L394.153 314.568L414.13 315.513L414.75 302.407L394.772 301.462ZM402.932 305.114C395.75 305.989 387.09 308.058 377.108 311.14L383.008 330.25C392.431 327.341 399.827 325.64 405.351 324.967L402.932 305.114ZM389.962 322.081L396.955 272.11L377.148 269.338L370.155 319.309L389.962 322.081ZM407.518 269.974L404.067 260.588L397.781 262.9L397.525 269.593L407.518 269.974ZM430.87 269.832L437.812 262.634L437.758 262.581L437.703 262.53L430.87 269.832ZM435.359 286.356L425.546 284.432L425.537 284.475L425.529 284.518L435.359 286.356ZM423.147 308.43L430.094 315.623L430.107 315.61L430.121 315.597L423.147 308.43ZM400.808 320.006L390.825 319.432L390.109 331.883L402.419 329.875L400.808 320.006ZM401.978 310.751L411.881 312.14L411.882 312.136L401.978 310.751ZM406.526 278.238L416.43 279.624L416.436 279.581L416.442 279.538L406.526 278.238ZM417.953 281.235L417.2 271.264L409.634 271.835L408.147 279.275L417.953 281.235ZM413.899 307.47L403.953 306.441L401.019 334.798L421.024 314.488L413.899 307.47ZM421.111 297.945L412.479 292.895L412.472 292.907L412.465 292.919L421.111 297.945ZM410.969 279.36C415.757 277.6 419.181 276.919 421.465 276.843L420.801 256.854C415.589 257.027 409.937 258.43 404.067 260.588L410.969 279.36ZM421.465 276.843C422.727 276.801 423.454 276.944 423.8 277.051C424.1 277.142 424.109 277.2 424.038 277.134L437.703 262.53C432.885 258.022 426.704 256.658 420.801 256.854L421.465 276.843ZM423.928 277.029C425.148 278.206 425.758 279.485 425.824 281.466L445.813 280.802C445.58 273.789 442.891 267.533 437.812 262.634L423.928 277.029ZM425.824 281.466C425.85 282.251 425.781 283.23 425.546 284.432L445.172 288.28C445.658 285.8 445.896 283.297 445.813 280.802L425.824 281.466ZM425.529 284.518C424.389 290.616 421.419 296.159 416.174 301.262L430.121 315.597C438.051 307.881 443.222 298.708 445.188 288.194L425.529 284.518ZM416.201 301.236C410.94 306.316 405.313 309.139 399.198 310.136L402.419 329.875C412.911 328.164 422.176 323.269 430.094 315.623L416.201 301.236ZM410.792 320.58C410.792 320.587 410.804 320.408 410.856 319.931C410.904 319.493 410.973 318.911 411.067 318.171C411.253 316.693 411.524 314.688 411.881 312.14L392.075 309.362C391.384 314.287 390.914 317.882 390.825 319.432L410.792 320.58ZM411.882 312.136L416.43 279.624L396.623 276.853L392.075 309.366L411.882 312.136ZM416.442 279.538C417.033 275.025 417.463 271.61 417.511 270.355L397.525 269.593C397.533 269.387 397.543 269.378 397.496 269.824C397.459 270.177 397.402 270.677 397.323 271.342C397.164 272.666 396.928 274.526 396.611 276.938L416.442 279.538ZM408.147 279.275C406.243 288.796 404.841 297.853 403.953 306.441L423.846 308.499C424.662 300.616 425.962 292.183 427.759 283.196L408.147 279.275ZM421.024 314.488C424.374 311.087 427.278 307.232 429.756 302.97L412.465 292.919C410.773 295.831 408.87 298.327 406.775 300.453L421.024 314.488ZM429.742 302.994C432.715 297.912 435.006 292.211 434.812 286.374L414.823 287.038C414.835 287.385 414.655 289.176 412.479 292.895L429.742 302.994ZM434.812 286.374C434.686 282.57 433.416 277.863 429.234 274.531C425.302 271.398 420.66 271.003 417.2 271.264L418.705 291.207C419.69 291.133 418.414 291.482 416.77 290.172C414.876 288.663 414.817 286.86 414.823 287.038L434.812 286.374Z" fill="black"/>
</svg>
